<svg height="44" viewBox="0 0 400 400" width="44" xmlns="http://www.w3.org/2000/svg"
     xmlns:v="https://vecta.io/nano">
    <defs>
        <clipPath id="A">
            <path
                    d="M150 300C67.157 300 0 232.843 0 150h0C0 67.157 67.157 0 150 0h0c82.843 0 150 67.157 150 150h0c0 82.843-67.157 150-150 150z"/>
        </clipPath>
    </defs>
    <g clip-path="url(#A)" transform="matrix(1.333333 0 0 -1.333333 0 400)">
        <path d="M0 300h450V0H0z" fill="#de2910"/>
        <g fill="#ffde00">
            <path
                    d="M75 270l26.45-81.406-69.248 50.312h85.595L48.55 188.594zm62.138-7.717l18.732 21.521-2.505-28.421-14.679 24.465 26.256-11.165zm28.013-24.404l25.616 12.566-13.338-25.223-4.035 28.245 19.866-20.479zm.426-38.758l28.513 1.023-22.466-17.587 7.838 27.434 9.784-26.802zm-27.29-24.751l26.697-10.066-27.515-7.548 17.823 22.279-1.324-28.501z"/>
        </g>
    </g>
</svg>