<svg height="44" viewBox="0 0 400 400" width="44" xmlns="http://www.w3.org/2000/svg"
     xmlns:v="https://vecta.io/nano">
    <defs>
        <clipPath id="A">
            <path
                    d="M150 300C67.157 300 0 232.843 0 150h0C0 67.157 67.157 0 150 0h0c82.843 0 150 67.157 150 150h0c0 82.843-67.157 150-150 150z"/>
        </clipPath>
    </defs>
    <g clip-path="url(#A)" transform="matrix(1.333333 0 0 -1.333333 0 400)">
        <path d="M449.686.034h-599.685V300h599.685z" fill="#fff"/>
        <path d="M119.856 120.111V.034h59.975v120.077h269.856v59.969H179.831V300h-59.975V180.08H-150v-59.969z"
              fill="#cf142b"/>
        <g fill="#00247d">
            <path
                    d="M199.83 202.901V300h194.16zm0-105.768V.034h194.16zm-99.974 0V.034h-194.16zm0 105.768V300h-194.16z"/>
        </g>
        <g fill="#cf142b">
            <path
                    d="M449.686 300h-33.308L216.8 200.014h33.308L450 300M82.886 100.025H49.578L-150 .039h33.308L83.2 100.025m-66.665 99.911h33.308L-149.999 300-150 283.23z"/>
            <path d="M283.045 100.064h-33.308L449.579 0l.001 16.77z"/>
        </g>
    </g>
</svg>